<?xml version="1.0" encoding="UTF-8" standalone="no"?>
<!DOCTYPE svg PUBLIC "-//W3C//DTD SVG 1.1//EN"
 "http://www.w3.org/Graphics/SVG/1.1/DTD/svg11.dtd">
<!-- Generated by graphviz version 2.42.4 (0)
 -->
<!-- Title: G Pages: 1 -->
<svg width="451pt" height="482pt"
 viewBox="0.00 0.00 451.34 482.43" xmlns="http://www.w3.org/2000/svg" xmlns:xlink="http://www.w3.org/1999/xlink">
<g id="graph0" class="graph" transform="scale(1 1) rotate(0) translate(4 478.43)">
<title>G</title><style>.edge>path:hover{stroke-width:8}</style>
<polygon fill="white" stroke="transparent" points="-4,4 -4,-478.43 447.34,-478.43 447.34,4 -4,4"/>
<!-- alabi -->
<g id="node1" class="node">
<title>alabi</title><style>.edge>path:hover{stroke-width:8}</style>
<ellipse fill="#b42d2d" stroke="black" cx="146.09" cy="-18" rx="27" ry="18"/>
<text text-anchor="middle" x="146.09" y="-15.5" font-family="Helvetica,sans-Serif" font-size="10.00" fill="#ffffff">alabi</text>
</g>
<!-- alabi_approx -->
<g id="node2" class="node">
<title>alabi_approx</title><style>.edge>path:hover{stroke-width:8}</style>
<ellipse fill="#7a2828" stroke="black" cx="146.09" cy="-90" rx="40.74" ry="18"/>
<text text-anchor="middle" x="146.09" y="-87.5" font-family="Helvetica,sans-Serif" font-size="10.00" fill="#ffffff">alabi.approx</text>
</g>
<!-- alabi_approx&#45;&gt;alabi -->
<g id="edge1" class="edge">
<title>alabi_approx&#45;&gt;alabi</title><style>.edge>path:hover{stroke-width:8}</style>
<path fill="none" stroke="black" d="M146.09,-71.7C146.09,-63.98 146.09,-54.71 146.09,-46.11"/>
<polygon fill="#7a2828" stroke="black" points="149.59,-46.1 146.09,-36.1 142.59,-46.1 149.59,-46.1"/>
</g>
<!-- alabi_gpUtils -->
<g id="node3" class="node">
<title>alabi_gpUtils</title><style>.edge>path:hover{stroke-width:8}</style>
<ellipse fill="#8b2222" stroke="black" cx="146.09" cy="-165.21" rx="41.59" ry="18"/>
<text text-anchor="middle" x="146.09" y="-162.71" font-family="Helvetica,sans-Serif" font-size="10.00" fill="#ffffff">alabi.gpUtils</text>
</g>
<!-- alabi_gpUtils&#45;&gt;alabi -->
<g id="edge2" class="edge">
<title>alabi_gpUtils&#45;&gt;alabi</title><style>.edge>path:hover{stroke-width:8}</style>
<path fill="none" stroke="black" d="M119.45,-151.32C97.81,-138.77 71.56,-117.7 76.09,-91"/>
</g>
<!-- alabi_gpUtils&#45;&gt;alabi_approx -->
<g id="edge3" class="edge">
<title>alabi_gpUtils&#45;&gt;alabi_approx</title><style>.edge>path:hover{stroke-width:8}</style>
<path fill="none" stroke="black" d="M146.09,-146.86C146.09,-138.38 146.09,-127.98 146.09,-118.45"/>
<polygon fill="#8b2222" stroke="black" points="149.59,-118.23 146.09,-108.23 142.59,-118.23 149.59,-118.23"/>
</g>
<!-- alabi_mcmcUtils -->
<g id="node4" class="node">
<title>alabi_mcmcUtils</title><style>.edge>path:hover{stroke-width:8}</style>
<ellipse fill="#cc3333" stroke="black" cx="398.09" cy="-165.21" rx="45.01" ry="21.43"/>
<text text-anchor="middle" x="398.09" y="-168.21" font-family="Helvetica,sans-Serif" font-size="10.00" fill="#ffffff">alabi.</text>
<text text-anchor="middle" x="398.09" y="-157.21" font-family="Helvetica,sans-Serif" font-size="10.00" fill="#ffffff">mcmcUtils</text>
</g>
<!-- alabi_mcmcUtils&#45;&gt;alabi -->
<g id="edge4" class="edge">
<title>alabi_mcmcUtils&#45;&gt;alabi</title><style>.edge>path:hover{stroke-width:8}</style>
<path fill="none" stroke="black" d="M370.15,-148.12C321.88,-120.3 223.34,-63.52 174.64,-35.45"/>
<polygon fill="#cc3333" stroke="black" points="176.28,-32.36 165.87,-30.4 172.78,-38.42 176.28,-32.36"/>
</g>
<!-- alabi_mcmcUtils&#45;&gt;alabi_approx -->
<g id="edge5" class="edge">
<title>alabi_mcmcUtils&#45;&gt;alabi_approx</title><style>.edge>path:hover{stroke-width:8}</style>
<path fill="none" stroke="black" d="M360.36,-153.25C314.47,-139.92 237.18,-117.47 189.05,-103.48"/>
<polygon fill="#cc3333" stroke="black" points="189.82,-100.06 179.24,-100.63 187.87,-106.78 189.82,-100.06"/>
</g>
<!-- alabi_utility -->
<g id="node5" class="node">
<title>alabi_utility</title><style>.edge>path:hover{stroke-width:8}</style>
<ellipse fill="#bf2121" stroke="black" cx="37.09" cy="-240.43" rx="37.17" ry="18"/>
<text text-anchor="middle" x="37.09" y="-237.93" font-family="Helvetica,sans-Serif" font-size="10.00" fill="#ffffff">alabi.utility</text>
</g>
<!-- alabi_utility&#45;&gt;alabi -->
<g id="edge6" class="edge">
<title>alabi_utility&#45;&gt;alabi</title><style>.edge>path:hover{stroke-width:8}</style>
<path fill="none" stroke="black" d="M46.38,-222.72C54.49,-207.98 66.43,-185.86 76.09,-166.21"/>
<path fill="none" stroke="black" d="M76.09,-164.21C90.44,-135.01 70.65,-123.08 76.09,-91"/>
<path fill="none" stroke="black" d="M76.09,-89C79.97,-66.06 99.33,-47.8 116.71,-35.69"/>
<polygon fill="#bf2121" stroke="black" points="119.07,-38.33 125.52,-29.93 115.23,-32.47 119.07,-38.33"/>
</g>
<!-- alabi_utility&#45;&gt;alabi_approx -->
<g id="edge7" class="edge">
<title>alabi_utility&#45;&gt;alabi_approx</title><style>.edge>path:hover{stroke-width:8}</style>
<path fill="none" stroke="black" d="M76.09,-164.21C85.97,-144.11 103.36,-125.88 118.33,-112.64"/>
<polygon fill="#bf2121" stroke="black" points="120.99,-114.97 126.33,-105.82 116.45,-109.64 120.99,-114.97"/>
</g>
<!-- alabi_utility&#45;&gt;alabi_gpUtils -->
<g id="edge8" class="edge">
<title>alabi_utility&#45;&gt;alabi_gpUtils</title><style>.edge>path:hover{stroke-width:8}</style>
<path fill="none" stroke="black" d="M57.84,-225.48C74.27,-214.45 97.43,-198.89 115.91,-186.49"/>
<polygon fill="#bf2121" stroke="black" points="117.93,-189.34 124.28,-180.86 114.03,-183.53 117.93,-189.34"/>
</g>
<!-- emcee -->
<g id="node6" class="node">
<title>emcee</title><style>.edge>path:hover{stroke-width:8}</style>
<polygon fill="#c0ad40" stroke="black" points="298.09,-258.43 295.09,-262.43 274.09,-262.43 271.09,-258.43 244.09,-258.43 244.09,-222.43 298.09,-222.43 298.09,-258.43"/>
<text text-anchor="middle" x="271.09" y="-237.93" font-family="Helvetica,sans-Serif" font-size="10.00" fill="#000000">emcee</text>
</g>
<!-- emcee&#45;&gt;alabi_approx -->
<g id="edge9" class="edge">
<title>emcee&#45;&gt;alabi_approx</title><style>.edge>path:hover{stroke-width:8}</style>
<path fill="none" stroke="black" d="M258.95,-222.13C248.15,-207.02 231.68,-184.67 216.09,-166.21"/>
</g>
<!-- george -->
<g id="node7" class="node">
<title>george</title><style>.edge>path:hover{stroke-width:8}</style>
<polygon fill="#5fcc33" stroke="black" points="260.09,-330.43 257.09,-334.43 236.09,-334.43 233.09,-330.43 206.09,-330.43 206.09,-294.43 260.09,-294.43 260.09,-330.43"/>
<text text-anchor="middle" x="233.09" y="-309.93" font-family="Helvetica,sans-Serif" font-size="10.00" fill="#000000">george</text>
</g>
<!-- george&#45;&gt;alabi_approx -->
<g id="edge10" class="edge">
<title>george&#45;&gt;alabi_approx</title><style>.edge>path:hover{stroke-width:8}</style>
<path fill="none" stroke="black" d="M216.09,-239.43C205.43,-208.68 237.09,-191.07 216.09,-166.21"/>
</g>
<!-- george&#45;&gt;alabi_gpUtils -->
<g id="edge11" class="edge">
<title>george&#45;&gt;alabi_gpUtils</title><style>.edge>path:hover{stroke-width:8}</style>
<path fill="none" stroke="black" d="M229.86,-294.19C226.95,-279.86 222.19,-259.03 216.09,-241.43"/>
<path fill="none" stroke="black" d="M216.09,-239.43C208.73,-218.2 191.29,-199.93 175.65,-186.95"/>
<polygon fill="#5fcc33" stroke="black" points="177.72,-184.12 167.71,-180.66 173.37,-189.61 177.72,-184.12"/>
</g>
<!-- numpy -->
<g id="node8" class="node">
<title>numpy</title><style>.edge>path:hover{stroke-width:8}</style>
<polygon fill="#06f991" stroke="black" points="167.09,-474.43 164.09,-478.43 143.09,-478.43 140.09,-474.43 113.09,-474.43 113.09,-438.43 167.09,-438.43 167.09,-474.43"/>
<text text-anchor="middle" x="140.09" y="-453.93" font-family="Helvetica,sans-Serif" font-size="10.00" fill="#000000">numpy</text>
</g>
<!-- numpy&#45;&gt;alabi_approx -->
<g id="edge12" class="edge">
<title>numpy&#45;&gt;alabi_approx</title><style>.edge>path:hover{stroke-width:8}</style>
<path fill="none" stroke="black" d="M241.09,-383.43C283.01,-299.2 392.86,-335.37 398.09,-241.43"/>
<path fill="none" stroke="black" d="M398.09,-239.43C397.13,-228.14 388.86,-228.16 379.09,-222.43 313.01,-183.62 265.54,-224.75 216.09,-166.21"/>
</g>
<!-- numpy&#45;&gt;alabi_gpUtils -->
<g id="edge13" class="edge">
<title>numpy&#45;&gt;alabi_gpUtils</title><style>.edge>path:hover{stroke-width:8}</style>
<path fill="none" stroke="black" d="M167.11,-446.03C192.08,-435.65 227.33,-416.2 241.09,-385.43"/>
<path fill="none" stroke="black" d="M241.09,-383.43C253.58,-355.48 211.68,-357.34 197.09,-330.43 172.68,-285.44 158.09,-227.06 151.12,-193.4"/>
<polygon fill="#06f991" stroke="black" points="154.51,-192.51 149.11,-183.39 147.64,-193.88 154.51,-192.51"/>
</g>
<!-- numpy&#45;&gt;alabi_mcmcUtils -->
<g id="edge14" class="edge">
<title>numpy&#45;&gt;alabi_mcmcUtils</title><style>.edge>path:hover{stroke-width:8}</style>
<path fill="none" stroke="black" d="M398.09,-239.43C398.86,-225.45 398.97,-209.94 398.84,-196.81"/>
<polygon fill="#06f991" stroke="black" points="402.34,-196.38 398.69,-186.43 395.34,-196.48 402.34,-196.38"/>
</g>
<!-- numpy&#45;&gt;alabi_utility -->
<g id="edge15" class="edge">
<title>numpy&#45;&gt;alabi_utility</title><style>.edge>path:hover{stroke-width:8}</style>
<path fill="none" stroke="black" d="M112.89,-448.73C84.22,-439.88 41.63,-421.07 30.09,-385.43"/>
<path fill="none" stroke="black" d="M30.09,-383.43C17.62,-344.95 23.98,-297.54 30.18,-268.41"/>
<polygon fill="#06f991" stroke="black" points="33.61,-269.08 32.42,-258.55 26.79,-267.53 33.61,-269.08"/>
</g>
<!-- scipy -->
<g id="node9" class="node">
<title>scipy</title><style>.edge>path:hover{stroke-width:8}</style>
<polygon fill="#0c8ae9" stroke="black" points="167.09,-402.43 164.09,-406.43 143.09,-406.43 140.09,-402.43 113.09,-402.43 113.09,-366.43 167.09,-366.43 167.09,-402.43"/>
<text text-anchor="middle" x="140.09" y="-381.93" font-family="Helvetica,sans-Serif" font-size="10.00" fill="#ffffff">scipy</text>
</g>
<!-- numpy&#45;&gt;scipy -->
<g id="edge16" class="edge">
<title>numpy&#45;&gt;scipy</title><style>.edge>path:hover{stroke-width:8}</style>
<path fill="none" stroke="black" d="M140.09,-438.12C140.09,-430.41 140.09,-421.14 140.09,-412.54"/>
<polygon fill="#06f991" stroke="black" points="143.59,-412.53 140.09,-402.53 136.59,-412.53 143.59,-412.53"/>
</g>
<!-- sklearn -->
<g id="node10" class="node">
<title>sklearn</title><style>.edge>path:hover{stroke-width:8}</style>
<polygon fill="#5b31c4" stroke="black" points="112.09,-330.43 109.09,-334.43 88.09,-334.43 85.09,-330.43 58.09,-330.43 58.09,-294.43 112.09,-294.43 112.09,-330.43"/>
<text text-anchor="middle" x="85.09" y="-309.93" font-family="Helvetica,sans-Serif" font-size="10.00" fill="#ffffff">sklearn</text>
</g>
<!-- numpy&#45;&gt;sklearn -->
<g id="edge17" class="edge">
<title>numpy&#45;&gt;sklearn</title><style>.edge>path:hover{stroke-width:8}</style>
<path fill="none" stroke="black" d="M30.09,-383.43C24.38,-365.81 36.06,-349.35 50.11,-336.82"/>
<polygon fill="#06f991" stroke="black" points="52.56,-339.34 58.06,-330.29 48.11,-333.93 52.56,-339.34"/>
</g>
<!-- scipy&#45;&gt;alabi_approx -->
<g id="edge18" class="edge">
<title>scipy&#45;&gt;alabi_approx</title><style>.edge>path:hover{stroke-width:8}</style>
<path fill="none" stroke="black" d="M140.09,-239.43C151.67,-193.98 246.36,-202.04 216.09,-166.21"/>
<path fill="none" stroke="black" d="M216.09,-164.21C201.34,-146.76 183.53,-128.16 169.56,-114.08"/>
<polygon fill="#0c8ae9" stroke="black" points="171.79,-111.35 162.24,-106.75 166.84,-116.3 171.79,-111.35"/>
</g>
<!-- scipy&#45;&gt;alabi_gpUtils -->
<g id="edge19" class="edge">
<title>scipy&#45;&gt;alabi_gpUtils</title><style>.edge>path:hover{stroke-width:8}</style>
<path fill="none" stroke="black" d="M140.09,-311.43C130.58,-281.8 132.4,-271.57 140.09,-241.43"/>
<path fill="none" stroke="black" d="M140.09,-239.43C143.86,-224.6 145.42,-207.6 146,-193.71"/>
<polygon fill="#0c8ae9" stroke="black" points="149.51,-193.44 146.29,-183.34 142.52,-193.24 149.51,-193.44"/>
</g>
<!-- scipy&#45;&gt;alabi_utility -->
<g id="edge20" class="edge">
<title>scipy&#45;&gt;alabi_utility</title><style>.edge>path:hover{stroke-width:8}</style>
<path fill="none" stroke="black" d="M142.95,-366.29C144.7,-351.83 145.65,-330.78 140.09,-313.43"/>
<path fill="none" stroke="black" d="M140.09,-311.43C131.01,-283.13 101.99,-265.04 77.06,-254.35"/>
<polygon fill="#0c8ae9" stroke="black" points="78.34,-251.1 67.75,-250.62 75.73,-257.59 78.34,-251.1"/>
</g>
<!-- sklearn&#45;&gt;alabi_gpUtils -->
<g id="edge21" class="edge">
<title>sklearn&#45;&gt;alabi_gpUtils</title><style>.edge>path:hover{stroke-width:8}</style>
<path fill="none" stroke="black" d="M92.32,-294.2C102.93,-268.95 122.77,-221.72 135.16,-192.23"/>
<polygon fill="#5b31c4" stroke="black" points="138.4,-193.55 139.05,-182.97 131.95,-190.83 138.4,-193.55"/>
</g>
<!-- tqdm -->
<g id="node11" class="node">
<title>tqdm</title><style>.edge>path:hover{stroke-width:8}</style>
<polygon fill="#b653a8" stroke="black" points="370.09,-258.43 367.09,-262.43 346.09,-262.43 343.09,-258.43 316.09,-258.43 316.09,-222.43 370.09,-222.43 370.09,-258.43"/>
<text text-anchor="middle" x="343.09" y="-237.93" font-family="Helvetica,sans-Serif" font-size="10.00" fill="#ffffff">tqdm</text>
</g>
<!-- tqdm&#45;&gt;alabi_approx -->
<g id="edge22" class="edge">
<title>tqdm&#45;&gt;alabi_approx</title><style>.edge>path:hover{stroke-width:8}</style>
<path fill="none" stroke="black" d="M315.89,-226.49C282.99,-210.39 230.25,-182.98 216.09,-166.21"/>
</g>
</g>
</svg>
