<?xml version="1.0" encoding="UTF-8" standalone="no"?>
<!DOCTYPE svg PUBLIC "-//W3C//DTD SVG 1.1//EN"
 "http://www.w3.org/Graphics/SVG/1.1/DTD/svg11.dtd">
<!-- Generated by graphviz version 2.42.4 (0)
 -->
<!-- Title: G Pages: 1 -->
<svg width="761pt" height="574pt"
 viewBox="0.00 0.00 760.61 573.71" xmlns="http://www.w3.org/2000/svg" xmlns:xlink="http://www.w3.org/1999/xlink">
<g id="graph0" class="graph" transform="scale(1 1) rotate(0) translate(4 569.71)">
<title>G</title><style>.edge>path:hover{stroke-width:8}</style>
<polygon fill="white" stroke="transparent" points="-4,4 -4,-569.71 756.61,-569.71 756.61,4 -4,4"/>
<!-- approxposterior -->
<g id="node1" class="node">
<title>approxposterior</title><style>.edge>path:hover{stroke-width:8}</style>
<ellipse fill="#9b2626" stroke="black" cx="337.61" cy="-18" rx="48.72" ry="18"/>
<text text-anchor="middle" x="337.61" y="-15.5" font-family="Helvetica,sans-Serif" font-size="10.00" fill="#ffffff">approxposterior</text>
</g>
<!-- approxposterior_approx -->
<g id="node2" class="node">
<title>approxposterior_approx</title><style>.edge>path:hover{stroke-width:8}</style>
<ellipse fill="#7a2828" stroke="black" cx="426.61" cy="-93.21" rx="60.62" ry="21.43"/>
<text text-anchor="middle" x="426.61" y="-96.21" font-family="Helvetica,sans-Serif" font-size="10.00" fill="#ffffff">approxposterior.</text>
<text text-anchor="middle" x="426.61" y="-85.21" font-family="Helvetica,sans-Serif" font-size="10.00" fill="#ffffff">approx</text>
</g>
<!-- approxposterior_approx&#45;&gt;approxposterior -->
<g id="edge1" class="edge">
<title>approxposterior_approx&#45;&gt;approxposterior</title><style>.edge>path:hover{stroke-width:8}</style>
<path fill="none" stroke="black" d="M403.69,-73.36C391.78,-63.56 377.14,-51.52 364.67,-41.26"/>
<polygon fill="#7a2828" stroke="black" points="366.79,-38.47 356.84,-34.82 362.34,-43.88 366.79,-38.47"/>
</g>
<!-- approxposterior_gmmUtils -->
<g id="node3" class="node">
<title>approxposterior_gmmUtils</title><style>.edge>path:hover{stroke-width:8}</style>
<ellipse fill="#a83838" stroke="black" cx="77.61" cy="-328.49" rx="60.62" ry="21.43"/>
<text text-anchor="middle" x="77.61" y="-331.49" font-family="Helvetica,sans-Serif" font-size="10.00" fill="#ffffff">approxposterior.</text>
<text text-anchor="middle" x="77.61" y="-320.49" font-family="Helvetica,sans-Serif" font-size="10.00" fill="#ffffff">gmmUtils</text>
</g>
<!-- approxposterior_gmmUtils&#45;&gt;approxposterior -->
<g id="edge2" class="edge">
<title>approxposterior_gmmUtils&#45;&gt;approxposterior</title><style>.edge>path:hover{stroke-width:8}</style>
<path fill="none" stroke="black" d="M62.48,-307.62C48.97,-287.27 33.08,-254.99 45.61,-228.85 62.86,-192.87 86.01,-199.39 115.61,-172.64"/>
<path fill="none" stroke="black" d="M115.61,-170.64C124.4,-161.99 124.29,-157.16 134.61,-150.43 197.39,-109.47 274.47,-166.68 293.61,-94.21"/>
<path fill="none" stroke="black" d="M293.61,-92.21C298.24,-74.69 308.48,-57.21 317.92,-43.73"/>
<polygon fill="#a83838" stroke="black" points="320.87,-45.62 323.94,-35.48 315.21,-41.5 320.87,-45.62"/>
</g>
<!-- approxposterior_gpUtils -->
<g id="node4" class="node">
<title>approxposterior_gpUtils</title><style>.edge>path:hover{stroke-width:8}</style>
<ellipse fill="#8b2222" stroke="black" cx="382.61" cy="-171.64" rx="60.62" ry="21.43"/>
<text text-anchor="middle" x="382.61" y="-174.64" font-family="Helvetica,sans-Serif" font-size="10.00" fill="#ffffff">approxposterior.</text>
<text text-anchor="middle" x="382.61" y="-163.64" font-family="Helvetica,sans-Serif" font-size="10.00" fill="#ffffff">gpUtils</text>
</g>
<!-- approxposterior_gpUtils&#45;&gt;approxposterior -->
<g id="edge3" class="edge">
<title>approxposterior_gpUtils&#45;&gt;approxposterior</title><style>.edge>path:hover{stroke-width:8}</style>
<path fill="none" stroke="black" d="M342.01,-155.81C315.06,-143.16 285.94,-122.52 293.61,-94.21"/>
</g>
<!-- approxposterior_gpUtils&#45;&gt;approxposterior_approx -->
<g id="edge4" class="edge">
<title>approxposterior_gpUtils&#45;&gt;approxposterior_approx</title><style>.edge>path:hover{stroke-width:8}</style>
<path fill="none" stroke="black" d="M394.17,-150.56C399.02,-142.13 404.75,-132.18 410.04,-123"/>
<polygon fill="#8b2222" stroke="black" points="413.17,-124.57 415.13,-114.16 407.11,-121.08 413.17,-124.57"/>
</g>
<!-- approxposterior_likelihood -->
<g id="node5" class="node">
<title>approxposterior_likelihood</title><style>.edge>path:hover{stroke-width:8}</style>
<ellipse fill="#b03a3a" stroke="black" cx="331.61" cy="-250.07" rx="60.62" ry="21.43"/>
<text text-anchor="middle" x="331.61" y="-253.07" font-family="Helvetica,sans-Serif" font-size="10.00" fill="#ffffff">approxposterior.</text>
<text text-anchor="middle" x="331.61" y="-242.07" font-family="Helvetica,sans-Serif" font-size="10.00" fill="#ffffff">likelihood</text>
</g>
<!-- approxposterior_likelihood&#45;&gt;approxposterior -->
<g id="edge5" class="edge">
<title>approxposterior_likelihood&#45;&gt;approxposterior</title><style>.edge>path:hover{stroke-width:8}</style>
<path fill="none" stroke="black" d="M320.11,-228.94C304.66,-199.32 280.58,-142.31 293.61,-94.21"/>
</g>
<!-- approxposterior_mcmcUtils -->
<g id="node6" class="node">
<title>approxposterior_mcmcUtils</title><style>.edge>path:hover{stroke-width:8}</style>
<ellipse fill="#cc3333" stroke="black" cx="204.61" cy="-171.64" rx="60.62" ry="21.43"/>
<text text-anchor="middle" x="204.61" y="-174.64" font-family="Helvetica,sans-Serif" font-size="10.00" fill="#ffffff">approxposterior.</text>
<text text-anchor="middle" x="204.61" y="-163.64" font-family="Helvetica,sans-Serif" font-size="10.00" fill="#ffffff">mcmcUtils</text>
</g>
<!-- approxposterior_mcmcUtils&#45;&gt;approxposterior -->
<g id="edge6" class="edge">
<title>approxposterior_mcmcUtils&#45;&gt;approxposterior</title><style>.edge>path:hover{stroke-width:8}</style>
<path fill="none" stroke="black" d="M239.22,-154.19C260.97,-141.43 286.26,-121.34 293.61,-94.21"/>
</g>
<!-- approxposterior_mcmcUtils&#45;&gt;approxposterior_approx -->
<g id="edge7" class="edge">
<title>approxposterior_mcmcUtils&#45;&gt;approxposterior_approx</title><style>.edge>path:hover{stroke-width:8}</style>
<path fill="none" stroke="black" d="M246.63,-156.17C283.13,-143.61 336.13,-125.36 375.16,-111.93"/>
<polygon fill="#cc3333" stroke="black" points="376.45,-115.18 384.77,-108.62 374.17,-108.56 376.45,-115.18"/>
</g>
<!-- approxposterior_priors -->
<g id="node7" class="node">
<title>approxposterior_priors</title><style>.edge>path:hover{stroke-width:8}</style>
<ellipse fill="#b03a3a" stroke="black" cx="115.61" cy="-250.07" rx="60.62" ry="21.43"/>
<text text-anchor="middle" x="115.61" y="-253.07" font-family="Helvetica,sans-Serif" font-size="10.00" fill="#ffffff">approxposterior.</text>
<text text-anchor="middle" x="115.61" y="-242.07" font-family="Helvetica,sans-Serif" font-size="10.00" fill="#ffffff">priors</text>
</g>
<!-- approxposterior_priors&#45;&gt;approxposterior -->
<g id="edge8" class="edge">
<title>approxposterior_priors&#45;&gt;approxposterior</title><style>.edge>path:hover{stroke-width:8}</style>
<path fill="none" stroke="black" d="M108.39,-228.86C103.53,-211.21 100.45,-186.34 115.61,-172.64"/>
</g>
<!-- approxposterior_utility -->
<g id="node8" class="node">
<title>approxposterior_utility</title><style>.edge>path:hover{stroke-width:8}</style>
<ellipse fill="#bf2121" stroke="black" cx="509.61" cy="-250.07" rx="60.62" ry="21.43"/>
<text text-anchor="middle" x="509.61" y="-253.07" font-family="Helvetica,sans-Serif" font-size="10.00" fill="#ffffff">approxposterior.</text>
<text text-anchor="middle" x="509.61" y="-242.07" font-family="Helvetica,sans-Serif" font-size="10.00" fill="#ffffff">utility</text>
</g>
<!-- approxposterior_utility&#45;&gt;approxposterior -->
<g id="edge9" class="edge">
<title>approxposterior_utility&#45;&gt;approxposterior</title><style>.edge>path:hover{stroke-width:8}</style>
<path fill="none" stroke="black" d="M502.61,-228.66C496.3,-212.28 485.82,-189.35 471.61,-172.64"/>
<path fill="none" stroke="black" d="M471.61,-170.64C463.63,-161.25 462.94,-157.16 452.61,-150.43 389.84,-109.47 274.47,-166.68 293.61,-94.21"/>
</g>
<!-- approxposterior_utility&#45;&gt;approxposterior_approx -->
<g id="edge10" class="edge">
<title>approxposterior_utility&#45;&gt;approxposterior_approx</title><style>.edge>path:hover{stroke-width:8}</style>
<path fill="none" stroke="black" d="M471.61,-170.64C459.5,-156.4 448.76,-138.47 440.81,-123.57"/>
<polygon fill="#bf2121" stroke="black" points="443.7,-121.55 436,-114.27 437.49,-124.76 443.7,-121.55"/>
</g>
<!-- approxposterior_utility&#45;&gt;approxposterior_gpUtils -->
<g id="edge11" class="edge">
<title>approxposterior_utility&#45;&gt;approxposterior_gpUtils</title><style>.edge>path:hover{stroke-width:8}</style>
<path fill="none" stroke="black" d="M480.16,-231.34C462.44,-220.68 439.71,-207 420.65,-195.53"/>
<polygon fill="#bf2121" stroke="black" points="422.28,-192.43 411.91,-190.27 418.67,-198.42 422.28,-192.43"/>
</g>
<!-- emcee -->
<g id="node9" class="node">
<title>emcee</title><style>.edge>path:hover{stroke-width:8}</style>
<polygon fill="#c0ad40" stroke="black" points="680.61,-268.07 677.61,-272.07 656.61,-272.07 653.61,-268.07 626.61,-268.07 626.61,-232.07 680.61,-232.07 680.61,-268.07"/>
<text text-anchor="middle" x="653.61" y="-247.57" font-family="Helvetica,sans-Serif" font-size="10.00" fill="#000000">emcee</text>
</g>
<!-- emcee&#45;&gt;approxposterior_approx -->
<g id="edge12" class="edge">
<title>emcee&#45;&gt;approxposterior_approx</title><style>.edge>path:hover{stroke-width:8}</style>
<path fill="none" stroke="black" d="M659.07,-231.99C663.31,-215.12 666.55,-189.47 653.61,-172.64"/>
</g>
<!-- george -->
<g id="node10" class="node">
<title>george</title><style>.edge>path:hover{stroke-width:8}</style>
<polygon fill="#5fcc33" stroke="black" points="532.61,-346.49 529.61,-350.49 508.61,-350.49 505.61,-346.49 478.61,-346.49 478.61,-310.49 532.61,-310.49 532.61,-346.49"/>
<text text-anchor="middle" x="505.61" y="-325.99" font-family="Helvetica,sans-Serif" font-size="10.00" fill="#000000">george</text>
</g>
<!-- george&#45;&gt;approxposterior_approx -->
<g id="edge13" class="edge">
<title>george&#45;&gt;approxposterior_approx</title><style>.edge>path:hover{stroke-width:8}</style>
<path fill="none" stroke="black" d="M532.96,-311.88C554.06,-298.43 582.3,-277.1 598.61,-251.07"/>
<path fill="none" stroke="black" d="M598.61,-249.07C620.83,-213.61 679.11,-205.82 653.61,-172.64"/>
<path fill="none" stroke="black" d="M653.61,-170.64C616.86,-122.8 548.86,-104.64 496.83,-97.88"/>
<polygon fill="#5fcc33" stroke="black" points="496.99,-94.38 486.65,-96.68 496.17,-101.33 496.99,-94.38"/>
</g>
<!-- george&#45;&gt;approxposterior_gpUtils -->
<g id="edge14" class="edge">
<title>george&#45;&gt;approxposterior_gpUtils</title><style>.edge>path:hover{stroke-width:8}</style>
<path fill="none" stroke="black" d="M478.43,-311.54C458.49,-298.17 432.84,-277.11 420.61,-251.07"/>
</g>
<!-- numpy -->
<g id="node11" class="node">
<title>numpy</title><style>.edge>path:hover{stroke-width:8}</style>
<polygon fill="#06f991" stroke="black" points="269.61,-565.71 266.61,-569.71 245.61,-569.71 242.61,-565.71 215.61,-565.71 215.61,-529.71 269.61,-529.71 269.61,-565.71"/>
<text text-anchor="middle" x="242.61" y="-545.21" font-family="Helvetica,sans-Serif" font-size="10.00" fill="#000000">numpy</text>
</g>
<!-- numpy&#45;&gt;approxposterior_approx -->
<g id="edge15" class="edge">
<title>numpy&#45;&gt;approxposterior_approx</title><style>.edge>path:hover{stroke-width:8}</style>
<path fill="none" stroke="black" d="M598.61,-327.49C599,-293.53 580.57,-279.85 598.61,-251.07"/>
</g>
<!-- numpy&#45;&gt;approxposterior_gmmUtils -->
<g id="edge16" class="edge">
<title>numpy&#45;&gt;approxposterior_gmmUtils</title><style>.edge>path:hover{stroke-width:8}</style>
<path fill="none" stroke="black" d="M132.61,-402.71C128.04,-385.26 116.72,-368.9 105.53,-356.08"/>
<polygon fill="#06f991" stroke="black" points="107.98,-353.58 98.64,-348.59 102.83,-358.32 107.98,-353.58"/>
</g>
<!-- numpy&#45;&gt;approxposterior_gpUtils -->
<g id="edge17" class="edge">
<title>numpy&#45;&gt;approxposterior_gpUtils</title><style>.edge>path:hover{stroke-width:8}</style>
<path fill="none" stroke="black" d="M412.61,-327.49C402.2,-294.97 435.13,-281.98 420.61,-251.07"/>
<path fill="none" stroke="black" d="M420.61,-249.07C413.24,-233.37 404.67,-216.06 397.54,-201.89"/>
<polygon fill="#06f991" stroke="black" points="400.5,-199.98 392.86,-192.63 394.25,-203.14 400.5,-199.98"/>
</g>
<!-- numpy&#45;&gt;approxposterior_likelihood -->
<g id="edge18" class="edge">
<title>numpy&#45;&gt;approxposterior_likelihood</title><style>.edge>path:hover{stroke-width:8}</style>
<path fill="none" stroke="black" d="M269.85,-547.66C318.97,-547.72 421.54,-539.82 467.61,-476.71"/>
<path fill="none" stroke="black" d="M467.61,-474.71C484.4,-451.71 442.7,-447.93 431.61,-421.71 415.32,-383.16 421.65,-370.35 412.61,-329.49"/>
<path fill="none" stroke="black" d="M412.61,-327.49C405.62,-305.66 387.72,-287.65 370.53,-274.61"/>
<polygon fill="#06f991" stroke="black" points="372.35,-271.61 362.19,-268.61 368.26,-277.29 372.35,-271.61"/>
</g>
<!-- numpy&#45;&gt;approxposterior_mcmcUtils -->
<g id="edge19" class="edge">
<title>numpy&#45;&gt;approxposterior_mcmcUtils</title><style>.edge>path:hover{stroke-width:8}</style>
<path fill="none" stroke="black" d="M132.61,-402.71C125.39,-388.72 181.16,-286.38 185.61,-271.28 192.26,-248.73 197.18,-222.59 200.34,-202.88"/>
<polygon fill="#06f991" stroke="black" points="203.81,-203.35 201.87,-192.94 196.89,-202.29 203.81,-203.35"/>
</g>
<!-- numpy&#45;&gt;approxposterior_priors -->
<g id="edge20" class="edge">
<title>numpy&#45;&gt;approxposterior_priors</title><style>.edge>path:hover{stroke-width:8}</style>
<path fill="none" stroke="black" d="M221.18,-529.33C193.3,-505 146.53,-457.8 132.61,-404.71"/>
<path fill="none" stroke="black" d="M132.61,-402.71C103.44,-349.88 40.93,-400.02 7.61,-349.71 -2.8,-333.98 -2.17,-323.4 7.61,-307.28 19.02,-288.48 38.99,-275.68 58.68,-267.1"/>
<polygon fill="#06f991" stroke="black" points="60.02,-270.34 67.98,-263.34 57.39,-263.85 60.02,-270.34"/>
</g>
<!-- numpy&#45;&gt;approxposterior_utility -->
<g id="edge21" class="edge">
<title>numpy&#45;&gt;approxposterior_utility</title><style>.edge>path:hover{stroke-width:8}</style>
<path fill="none" stroke="black" d="M467.61,-474.71C521.1,-406.19 586.72,-415.6 598.61,-329.49"/>
<path fill="none" stroke="black" d="M598.61,-327.49C598.9,-302.52 578.5,-283.94 557.16,-271.35"/>
<polygon fill="#06f991" stroke="black" points="558.78,-268.25 548.33,-266.49 555.4,-274.38 558.78,-268.25"/>
</g>
<!-- scipy -->
<g id="node12" class="node">
<title>scipy</title><style>.edge>path:hover{stroke-width:8}</style>
<polygon fill="#068bef" stroke="black" points="494.61,-421.71 491.61,-425.71 470.61,-425.71 467.61,-421.71 440.61,-421.71 440.61,-385.71 494.61,-385.71 494.61,-421.71"/>
<text text-anchor="middle" x="467.61" y="-401.21" font-family="Helvetica,sans-Serif" font-size="10.00" fill="#ffffff">scipy</text>
</g>
<!-- numpy&#45;&gt;scipy -->
<g id="edge22" class="edge">
<title>numpy&#45;&gt;scipy</title><style>.edge>path:hover{stroke-width:8}</style>
<path fill="none" stroke="black" d="M467.61,-474.71C476.4,-462.66 476.77,-446.08 474.76,-432.08"/>
<polygon fill="#06f991" stroke="black" points="478.15,-431.17 472.87,-421.99 471.27,-432.46 478.15,-431.17"/>
</g>
<!-- sklearn -->
<g id="node13" class="node">
<title>sklearn</title><style>.edge>path:hover{stroke-width:8}</style>
<polygon fill="#5624d0" stroke="black" points="269.61,-493.71 266.61,-497.71 245.61,-497.71 242.61,-493.71 215.61,-493.71 215.61,-457.71 269.61,-457.71 269.61,-493.71"/>
<text text-anchor="middle" x="242.61" y="-473.21" font-family="Helvetica,sans-Serif" font-size="10.00" fill="#ffffff">sklearn</text>
</g>
<!-- numpy&#45;&gt;sklearn -->
<g id="edge23" class="edge">
<title>numpy&#45;&gt;sklearn</title><style>.edge>path:hover{stroke-width:8}</style>
<path fill="none" stroke="black" d="M242.61,-529.4C242.61,-521.69 242.61,-512.42 242.61,-503.82"/>
<polygon fill="#06f991" stroke="black" points="246.11,-503.81 242.61,-493.81 239.11,-503.81 246.11,-503.81"/>
</g>
<!-- scipy&#45;&gt;approxposterior_approx -->
<g id="edge24" class="edge">
<title>scipy&#45;&gt;approxposterior_approx</title><style>.edge>path:hover{stroke-width:8}</style>
<path fill="none" stroke="black" d="M560.61,-327.49C575.52,-292.61 578.47,-283.21 598.61,-251.07"/>
</g>
<!-- scipy&#45;&gt;approxposterior_gpUtils -->
<g id="edge25" class="edge">
<title>scipy&#45;&gt;approxposterior_gpUtils</title><style>.edge>path:hover{stroke-width:8}</style>
<path fill="none" stroke="black" d="M450.61,-327.49C433.41,-295.31 436.12,-284.1 420.61,-251.07"/>
</g>
<!-- scipy&#45;&gt;approxposterior_likelihood -->
<g id="edge26" class="edge">
<title>scipy&#45;&gt;approxposterior_likelihood</title><style>.edge>path:hover{stroke-width:8}</style>
<path fill="none" stroke="black" d="M466.18,-385.54C464.31,-370.11 460.09,-347.21 450.61,-329.49"/>
<path fill="none" stroke="black" d="M450.61,-327.49C436.28,-300.69 407.98,-281.93 382.57,-269.71"/>
<polygon fill="#068bef" stroke="black" points="383.93,-266.48 373.38,-265.51 381.01,-272.85 383.93,-266.48"/>
</g>
<!-- scipy&#45;&gt;approxposterior_priors -->
<g id="edge27" class="edge">
<title>scipy&#45;&gt;approxposterior_priors</title><style>.edge>path:hover{stroke-width:8}</style>
<path fill="none" stroke="black" d="M440.58,-391.06C380.8,-365.31 236.8,-303.27 162.19,-271.13"/>
<polygon fill="#068bef" stroke="black" points="163.14,-267.73 152.57,-266.99 160.37,-274.16 163.14,-267.73"/>
</g>
<!-- scipy&#45;&gt;approxposterior_utility -->
<g id="edge28" class="edge">
<title>scipy&#45;&gt;approxposterior_utility</title><style>.edge>path:hover{stroke-width:8}</style>
<path fill="none" stroke="black" d="M494.66,-390.73C517.45,-378.91 548.25,-358.4 560.61,-329.49"/>
<path fill="none" stroke="black" d="M560.61,-327.49C568.41,-309.26 556.6,-290.71 542.4,-276.45"/>
<polygon fill="#068bef" stroke="black" points="544.54,-273.67 534.84,-269.41 539.77,-278.79 544.54,-273.67"/>
</g>
<!-- sklearn&#45;&gt;approxposterior_gmmUtils -->
<g id="edge29" class="edge">
<title>sklearn&#45;&gt;approxposterior_gmmUtils</title><style>.edge>path:hover{stroke-width:8}</style>
<path fill="none" stroke="black" d="M246.35,-457.51C248.69,-442.83 250.02,-421.49 242.61,-404.71"/>
<path fill="none" stroke="black" d="M242.61,-402.71C233.08,-381.12 177.65,-359.59 133.63,-345.52"/>
<polygon fill="#5624d0" stroke="black" points="134.46,-342.11 123.87,-342.46 132.36,-348.79 134.46,-342.11"/>
</g>
<!-- sklearn&#45;&gt;approxposterior_gpUtils -->
<g id="edge30" class="edge">
<title>sklearn&#45;&gt;approxposterior_gpUtils</title><style>.edge>path:hover{stroke-width:8}</style>
<path fill="none" stroke="black" d="M242.61,-402.71C211.22,-331.6 216.3,-292.01 261.61,-228.85 276.14,-208.6 299.84,-195.44 322.43,-186.99"/>
<polygon fill="#5624d0" stroke="black" points="323.73,-190.24 332.02,-183.65 321.42,-183.63 323.73,-190.24"/>
</g>
<!-- tqdm -->
<g id="node14" class="node">
<title>tqdm</title><style>.edge>path:hover{stroke-width:8}</style>
<polygon fill="#b653a8" stroke="black" points="752.61,-268.07 749.61,-272.07 728.61,-272.07 725.61,-268.07 698.61,-268.07 698.61,-232.07 752.61,-232.07 752.61,-268.07"/>
<text text-anchor="middle" x="725.61" y="-247.57" font-family="Helvetica,sans-Serif" font-size="10.00" fill="#ffffff">tqdm</text>
</g>
<!-- tqdm&#45;&gt;approxposterior_approx -->
<g id="edge31" class="edge">
<title>tqdm&#45;&gt;approxposterior_approx</title><style>.edge>path:hover{stroke-width:8}</style>
<path fill="none" stroke="black" d="M707.67,-232.06C692.42,-217.13 670.38,-194.47 653.61,-172.64"/>
</g>
</g>
</svg>
